{"accessors":[{"name":"Mesh1 Model_1_positions","componentType":5126,"count":2252,"min":[-0.2722409963607788,0.12387800216674805,-1.688539981842041],"max":[0.42244499921798706,0.7654579877853394,0.40881699323654175],"type":"VEC3","bufferView":0,"byteOffset":0},{"name":"Mesh1 Model_1_normals","componentType":5126,"count":2252,"min":[-1,-1,-1],"max":[1,1,1],"type":"VEC3","bufferView":0,"byteOffset":43680},{"name":"Mesh1 Model_1_texcoords","componentType":5126,"count":2252,"min":[-67.08830261230469,-65.47789764404297],"max":[66.80789947509766,53.68840026855469],"type":"VEC2","bufferView":1,"byteOffset":0},{"name":"Mesh1 Model_1_0_indices","componentType":5123,"count":2028,"min":[0],"max":[2247],"type":"SCALAR","bufferView":2,"byteOffset":0},{"name":"Mesh1 Model_1_1_indices","componentType":5123,"count":1080,"min":[76],"max":[2189],"type":"SCALAR","bufferView":2,"byteOffset":4056},{"name":"Mesh1 Model_1_2_indices","componentType":5123,"count":402,"min":[120],"max":[2145],"type":"SCALAR","bufferView":2,"byteOffset":6216},{"name":"Mesh1 Model_1_3_indices","componentType":5123,"count":18,"min":[112],"max":[251],"type":"SCALAR","bufferView":2,"byteOffset":7020},{"name":"Mesh1 Model_1_4_indices","componentType":5123,"count":135,"min":[181],"max":[1343],"type":"SCALAR","bufferView":2,"byteOffset":7056},{"name":"Mesh1 Model_1_5_indices","componentType":5123,"count":12,"min":[203],"max":[210],"type":"SCALAR","bufferView":2,"byteOffset":7328},{"name":"Mesh1 Model_1_6_indices","componentType":5123,"count":96,"min":[284],"max":[2242],"type":"SCALAR","bufferView":2,"byteOffset":7352},{"name":"Mesh1 Model_1_7_indices","componentType":5123,"count":258,"min":[371],"max":[2241],"type":"SCALAR","bufferView":2,"byteOffset":7544},{"name":"Mesh1 Model_1_8_indices","componentType":5123,"count":270,"min":[394],"max":[822],"type":"SCALAR","bufferView":2,"byteOffset":8060},{"name":"Mesh1 Model_1_9_indices","componentType":5123,"count":168,"min":[21],"max":[2251],"type":"SCALAR","bufferView":2,"byteOffset":8600},{"name":"Mesh1 Model_1_10_indices","componentType":5123,"count":72,"min":[879],"max":[2196],"type":"SCALAR","bufferView":2,"byteOffset":8936},{"name":"Mesh1 Model_1_11_indices","componentType":5123,"count":198,"min":[1457],"max":[1862],"type":"SCALAR","bufferView":2,"byteOffset":9080},{"name":"Mesh1 Model_1_12_indices","componentType":5123,"count":24,"min":[1498],"max":[1881],"type":"SCALAR","bufferView":2,"byteOffset":9476},{"name":"Mesh1 Model_1_13_indices","componentType":5123,"count":36,"min":[2099],"max":[2140],"type":"SCALAR","bufferView":2,"byteOffset":9524},{"name":"Mesh1 Model_1_14_indices","componentType":5123,"count":12,"min":[2223],"max":[2246],"type":"SCALAR","bufferView":2,"byteOffset":9596},{"name":"Mesh2 Model_1_positions","componentType":5126,"count":30,"min":[0.41258299350738525,0.5182849764823914,-0.24939000606536865],"max":[0.48161301016807556,0.5829330086708069,-0.22528399527072906],"type":"VEC3","bufferView":0,"byteOffset":27024},{"name":"Mesh2 Model_1_normals","componentType":5126,"count":30,"min":[-1,-0.9938840270042419,-1],"max":[1,1,1],"type":"VEC3","bufferView":0,"byteOffset":70704},{"name":"Mesh2 Model_1_texcoords","componentType":5126,"count":30,"min":[-18.961200714111328,-21.95009994506836],"max":[18.961200714111328,-2.5248498916625977],"type":"VEC2","bufferView":1,"byteOffset":18016},{"name":"Mesh2 Model_1_0_indices","componentType":5123,"count":9,"min":[0],"max":[4],"type":"SCALAR","bufferView":2,"byteOffset":9620},{"name":"Mesh2 Model_1_1_indices","componentType":5123,"count":39,"min":[5],"max":[29],"type":"SCALAR","bufferView":2,"byteOffset":9640},{"name":"Mesh3 Model_1_positions","componentType":5126,"count":248,"min":[-0.2722409963607788,0.003330070059746504,-0.09018030017614365],"max":[-0.16266900300979614,0.3210020065307617,0.22749100625514984],"type":"VEC3","bufferView":0,"byteOffset":27384},{"name":"Mesh3 Model_1_normals","componentType":5126,"count":248,"min":[-1,-0.9997270107269287,-0.9997270107269287],"max":[1,0.9997270107269287,0.9997270107269287],"type":"VEC3","bufferView":0,"byteOffset":71064},{"name":"Mesh3 Model_1_texcoords","componentType":5126,"count":248,"min":[-10.718099594116211,-11.637900352478027],"max":[10.718099594116211,3.8185200691223145],"type":"VEC2","bufferView":1,"byteOffset":18256},{"name":"Mesh3 Model_1_0_indices","componentType":5123,"count":378,"min":[0],"max":[247],"type":"SCALAR","bufferView":2,"byteOffset":9720},{"name":"Mesh3 Model_1_1_indices","componentType":5123,"count":288,"min":[11],"max":[145],"type":"SCALAR","bufferView":2,"byteOffset":10476},{"name":"Mesh3 Model_1_2_indices","componentType":5123,"count":210,"min":[60],"max":[145],"type":"SCALAR","bufferView":2,"byteOffset":11052},{"name":"Mesh4 Model_1_positions","componentType":5126,"count":30,"min":[-0.3314090073108673,0.5182849764823914,-0.24939000606536865],"max":[-0.262378990650177,0.5829330086708069,-0.22528399527072906],"type":"VEC3","bufferView":0,"byteOffset":30360},{"name":"Mesh4 Model_1_normals","componentType":5126,"count":30,"min":[-1,-0.9938840270042419,-1],"max":[1,1,1],"type":"VEC3","bufferView":0,"byteOffset":74040},{"name":"Mesh4 Model_1_texcoords","componentType":5126,"count":30,"min":[-13.047599792480469,-21.95009994506836],"max":[13.047599792480469,-6.559020042419434],"type":"VEC2","bufferView":1,"byteOffset":20240},{"name":"Mesh4 Model_1_0_indices","componentType":5123,"count":9,"min":[0],"max":[4],"type":"SCALAR","bufferView":2,"byteOffset":11472},{"name":"Mesh4 Model_1_1_indices","componentType":5123,"count":39,"min":[5],"max":[29],"type":"SCALAR","bufferView":2,"byteOffset":11492},{"name":"Mesh5 Model_1_positions","componentType":5126,"count":368,"min":[-0.2722409963607788,0.003330070059746504,-1.3381799459457397],"max":[-0.14186899363994598,0.3210020065307617,-1.020509958267212],"type":"VEC3","bufferView":0,"byteOffset":30720},{"name":"Mesh5 Model_1_normals","componentType":5126,"count":368,"min":[-1,-0.9997270107269287,-0.9997270107269287],"max":[1,0.9997270107269287,0.9997270107269287],"type":"VEC3","bufferView":0,"byteOffset":74400},{"name":"Mesh5 Model_1_texcoords","componentType":5126,"count":368,"min":[-52.68429946899414,-46.664398193359375],"max":[52.68429946899414,46.7150993347168],"type":"VEC2","bufferView":1,"byteOffset":20480},{"name":"Mesh5 Model_1_0_indices","componentType":5123,"count":390,"min":[0],"max":[367],"type":"SCALAR","bufferView":2,"byteOffset":11572},{"name":"Mesh5 Model_1_1_indices","componentType":5123,"count":420,"min":[124],"max":[341],"type":"SCALAR","bufferView":2,"byteOffset":12352},{"name":"Mesh5 Model_1_2_indices","componentType":5123,"count":210,"min":[145],"max":[309],"type":"SCALAR","bufferView":2,"byteOffset":13192},{"name":"Mesh6 Model_1_positions","componentType":5126,"count":344,"min":[0.31015899777412415,0.003330070059746504,-0.09018030017614365],"max":[0.4197309911251068,0.3210020065307617,0.22749100625514984],"type":"VEC3","bufferView":0,"byteOffset":35136},{"name":"Mesh6 Model_1_normals","componentType":5126,"count":344,"min":[-1,-0.9997270107269287,-0.9997270107269287],"max":[1,0.9997270107269287,0.9997270107269287],"type":"VEC3","bufferView":0,"byteOffset":78816},{"name":"Mesh6 Model_1_texcoords","componentType":5126,"count":344,"min":[-16.524900436401367,-11.637900352478027],"max":[16.524900436401367,3.8185200691223145],"type":"VEC2","bufferView":1,"byteOffset":23424},{"name":"Mesh6 Model_1_0_indices","componentType":5123,"count":378,"min":[4],"max":[341],"type":"SCALAR","bufferView":2,"byteOffset":13612},{"name":"Mesh6 Model_1_1_indices","componentType":5123,"count":288,"min":[0],"max":[343],"type":"SCALAR","bufferView":2,"byteOffset":14368},{"name":"Mesh6 Model_1_2_indices","componentType":5123,"count":210,"min":[94],"max":[296],"type":"SCALAR","bufferView":2,"byteOffset":14944},{"name":"Mesh7 Model_1_positions","componentType":5126,"count":368,"min":[0.2893590033054352,0.003330070059746504,-1.3381799459457397],"max":[0.4197309911251068,0.3210020065307617,-1.020509958267212],"type":"VEC3","bufferView":0,"byteOffset":39264},{"name":"Mesh7 Model_1_normals","componentType":5126,"count":368,"min":[-1,-0.9997270107269287,-0.9997270107269287],"max":[1,0.9997270107269287,0.9997270107269287],"type":"VEC3","bufferView":0,"byteOffset":82944},{"name":"Mesh7 Model_1_texcoords","componentType":5126,"count":368,"min":[-52.68429946899414,-46.664398193359375],"max":[52.68429946899414,46.7150993347168],"type":"VEC2","bufferView":1,"byteOffset":26176},{"name":"Mesh7 Model_1_0_indices","componentType":5123,"count":432,"min":[0],"max":[362],"type":"SCALAR","bufferView":2,"byteOffset":15364},{"name":"Mesh7 Model_1_1_indices","componentType":5123,"count":210,"min":[0],"max":[339],"type":"SCALAR","bufferView":2,"byteOffset":16228},{"name":"Mesh7 Model_1_2_indices","componentType":5123,"count":378,"min":[64],"max":[367],"type":"SCALAR","bufferView":2,"byteOffset":16648}],"asset":{"generator":"obj2gltf","version":"2.0"},"buffers":[{"name":"l200","byteLength":133884,"uri":"data:application/octet-stream;base64,"}],"bufferViews":[{"name":"bufferView_0","buffer":0,"byteLength":87360,"byteOffset":0,"byteStride":12,"target":34962},{"name":"bufferView_1","buffer":0,"byteLength":29120,"byteOffset":87360,"byteStride":8,"target":34962},{"name":"bufferView_2","buffer":0,"byteLength":17404,"byteOffset":116480,"target":34963}],"materials":[{"name":"M_0136_Charcoal","pbrMetallicRoughness":{"baseColorFactor":[0.047059,0.047059,0.047059,1],"metallicFactor":0,"roughnessFactor":1},"emissiveFactor":[0,0,0],"alphaMode":"OPAQUE","doubleSided":false},{"name":"M_0135_DarkGray","pbrMetallicRoughness":{"baseColorFactor":[0.388235,0.376471,0.376471,1],"metallicFactor":0,"roughnessFactor":1},"emissiveFactor":[0,0,0],"alphaMode":"OPAQUE","doubleSided":false},{"name":"Color_M08","pbrMetallicRoughness":{"baseColorFactor":[0,0,0,1],"metallicFactor":0,"roughnessFactor":1},"emissiveFactor":[0,0,0],"alphaMode":"OPAQUE","doubleSided":false},{"name":"Color_M00","pbrMetallicRoughness":{"baseColorFactor":[1,1,1,1],"metallicFactor":0,"roughnessFactor":1},"emissiveFactor":[0,0,0],"alphaMode":"OPAQUE","doubleSided":false},{"name":"Color_L05","pbrMetallicRoughness":{"baseColorFactor":[0.054902,0.058824,0.05098,1],"metallicFactor":0,"roughnessFactor":1},"emissiveFactor":[0,0,0],"alphaMode":"OPAQUE","doubleSided":false},{"name":"M_0137_Black","pbrMetallicRoughness":{"baseColorFactor":[0,0,0,1],"metallicFactor":0,"roughnessFactor":1},"emissiveFactor":[0,0,0],"alphaMode":"OPAQUE","doubleSided":false},{"name":"M_0130_Gainsboro","pbrMetallicRoughness":{"baseColorFactor":[0.862745,0.741176,0.439216,1],"metallicFactor":0,"roughnessFactor":1},"emissiveFactor":[0,0,0],"alphaMode":"OPAQUE","doubleSided":false},{"name":"M_0132_LightGray","pbrMetallicRoughness":{"baseColorFactor":[0.2,0.2,0.2,1],"metallicFactor":0,"roughnessFactor":1},"emissiveFactor":[0,0,0],"alphaMode":"OPAQUE","doubleSided":false},{"name":"Color_M06","pbrMetallicRoughness":{"baseColorFactor":[0.337255,0.337255,0.337255,1],"metallicFactor":0,"roughnessFactor":1},"emissiveFactor":[0,0,0],"alphaMode":"OPAQUE","doubleSided":false},{"name":"M_0134_DimGray","pbrMetallicRoughness":{"baseColorFactor":[0.411765,0.411765,0.411765,1],"metallicFactor":0,"roughnessFactor":1},"emissiveFactor":[0,0,0],"alphaMode":"OPAQUE","doubleSided":false},{"name":"FrontColor","pbrMetallicRoughness":{"baseColorFactor":[1,1,1,1],"metallicFactor":0,"roughnessFactor":1},"emissiveFactor":[0,0,0],"alphaMode":"OPAQUE","doubleSided":false},{"name":"Color_A05","pbrMetallicRoughness":{"baseColorFactor":[1,0,0,1],"metallicFactor":0,"roughnessFactor":1},"emissiveFactor":[0,0,0],"alphaMode":"OPAQUE","doubleSided":false},{"name":"M_0010_Snow","pbrMetallicRoughness":{"baseColorFactor":[1,0.980392,0.980392,1],"metallicFactor":0,"roughnessFactor":1},"emissiveFactor":[0,0,0],"alphaMode":"OPAQUE","doubleSided":false},{"name":"Color_M02","pbrMetallicRoughness":{"baseColorFactor":[0.776471,0.776471,0.776471,1],"metallicFactor":0,"roughnessFactor":1},"emissiveFactor":[0,0,0],"alphaMode":"OPAQUE","doubleSided":false},{"name":"Color_D05","pbrMetallicRoughness":{"baseColorFactor":[1,0.74902,0,1],"metallicFactor":0,"roughnessFactor":1},"emissiveFactor":[0,0,0],"alphaMode":"OPAQUE","doubleSided":false}],"meshes":[{"name":"Mesh1 Model_1","primitives":[{"attributes":{"POSITION":0,"NORMAL":1,"TEXCOORD_0":2},"indices":3,"material":0,"mode":4},{"attributes":{"POSITION":0,"NORMAL":1,"TEXCOORD_0":2},"indices":4,"material":1,"mode":4},{"attributes":{"POSITION":0,"NORMAL":1,"TEXCOORD_0":2},"indices":5,"material":2,"mode":4},{"attributes":{"POSITION":0,"NORMAL":1,"TEXCOORD_0":2},"indices":6,"material":3,"mode":4},{"attributes":{"POSITION":0,"NORMAL":1,"TEXCOORD_0":2},"indices":7,"material":4,"mode":4},{"attributes":{"POSITION":0,"NORMAL":1,"TEXCOORD_0":2},"indices":8,"material":5,"mode":4},{"attributes":{"POSITION":0,"NORMAL":1,"TEXCOORD_0":2},"indices":9,"material":6,"mode":4},{"attributes":{"POSITION":0,"NORMAL":1,"TEXCOORD_0":2},"indices":10,"material":7,"mode":4},{"attributes":{"POSITION":0,"NORMAL":1,"TEXCOORD_0":2},"indices":11,"material":8,"mode":4},{"attributes":{"POSITION":0,"NORMAL":1,"TEXCOORD_0":2},"indices":12,"material":9,"mode":4},{"attributes":{"POSITION":0,"NORMAL":1,"TEXCOORD_0":2},"indices":13,"material":10,"mode":4},{"attributes":{"POSITION":0,"NORMAL":1,"TEXCOORD_0":2},"indices":14,"material":11,"mode":4},{"attributes":{"POSITION":0,"NORMAL":1,"TEXCOORD_0":2},"indices":15,"material":12,"mode":4},{"attributes":{"POSITION":0,"NORMAL":1,"TEXCOORD_0":2},"indices":16,"material":13,"mode":4},{"attributes":{"POSITION":0,"NORMAL":1,"TEXCOORD_0":2},"indices":17,"material":14,"mode":4}]},{"name":"Mesh2 Model_1","primitives":[{"attributes":{"POSITION":18,"NORMAL":19,"TEXCOORD_0":20},"indices":21,"material":7,"mode":4},{"attributes":{"POSITION":18,"NORMAL":19,"TEXCOORD_0":20},"indices":22,"material":0,"mode":4}]},{"name":"Mesh3 Model_1","primitives":[{"attributes":{"POSITION":23,"NORMAL":24,"TEXCOORD_0":25},"indices":26,"material":2,"mode":4},{"attributes":{"POSITION":23,"NORMAL":24,"TEXCOORD_0":25},"indices":27,"material":8,"mode":4},{"attributes":{"POSITION":23,"NORMAL":24,"TEXCOORD_0":25},"indices":28,"material":5,"mode":4}]},{"name":"Mesh4 Model_1","primitives":[{"attributes":{"POSITION":29,"NORMAL":30,"TEXCOORD_0":31},"indices":32,"material":7,"mode":4},{"attributes":{"POSITION":29,"NORMAL":30,"TEXCOORD_0":31},"indices":33,"material":0,"mode":4}]},{"name":"Mesh5 Model_1","primitives":[{"attributes":{"POSITION":34,"NORMAL":35,"TEXCOORD_0":36},"indices":37,"material":2,"mode":4},{"attributes":{"POSITION":34,"NORMAL":35,"TEXCOORD_0":36},"indices":38,"material":8,"mode":4},{"attributes":{"POSITION":34,"NORMAL":35,"TEXCOORD_0":36},"indices":39,"material":5,"mode":4}]},{"name":"Mesh6 Model_1","primitives":[{"attributes":{"POSITION":40,"NORMAL":41,"TEXCOORD_0":42},"indices":43,"material":2,"mode":4},{"attributes":{"POSITION":40,"NORMAL":41,"TEXCOORD_0":42},"indices":44,"material":8,"mode":4},{"attributes":{"POSITION":40,"NORMAL":41,"TEXCOORD_0":42},"indices":45,"material":5,"mode":4}]},{"name":"Mesh7 Model_1","primitives":[{"attributes":{"POSITION":46,"NORMAL":47,"TEXCOORD_0":48},"indices":49,"material":8,"mode":4},{"attributes":{"POSITION":46,"NORMAL":47,"TEXCOORD_0":48},"indices":50,"material":5,"mode":4},{"attributes":{"POSITION":46,"NORMAL":47,"TEXCOORD_0":48},"indices":51,"material":2,"mode":4}]}],"nodes":[{"name":"Mesh1 Model","mesh":0},{"name":"Mesh2 Model","mesh":1},{"name":"Mesh3 Model","mesh":2},{"name":"Mesh4 Model","mesh":3},{"name":"Mesh5 Model","mesh":4},{"name":"Mesh6 Model","mesh":5},{"name":"Mesh7 Model","mesh":6}],"scene":0,"scenes":[{"nodes":[0,1,2,3,4,5,6]}]}
